# xmcd CD database file
#
# Track frame offsets:
#	150
#	17936
#	32165
#	50498
#	68311
#	86062
#	102681
#	116801
#	131145
#	147749
#	165852
#
# Disc length: 2472 seconds
#
# Revision: 1
# Processed by: cddbd v1.5.2PL0 Copyright (c) Steve Scherf et al.
# Submitted via: CDex 1.70beta2
#
DISCID=9d09a60b
DTITLE=Rammas Atas - Til Life Do Us Part
DYEAR=2010
DGENRE=Industrial Metal
TTITLE0=Everdream
TTITLE1=Ghost Train
TTITLE2=Out Of 3
TTITLE3=Love Has Failed Us
TTITLE4=My Waterloo
TTITLE5=D-Force Day
TTITLE6=Night Of The Living Dead Hearts
TTITLE7=Self-Disappointer
TTITLE8=My World
TTITLE9==490
TTITLE10=Tsunami Of Hearts
EXTD=YEAR: 2010
EXTT0=
EXTT1=
EXTT2=
EXTT3=
EXTT4=
EXTT5=
EXTT6=
EXTT7=
EXTT8=
EXTT9=
EXTT10=
PLAYORDER=
